# xmcd
#
# Track frame offsets: 
#        150
#        13607
#        29880
#        45118
#        59074
#        73032
#
# Disc length: 1221 seconds
#
# Revision: 0
# Processed by: cddbd v1.5.2PL0 Copyright (c) Steve Scherf et al.
# Submitted via: ExactAudioCopy v0.99pb5
#
DISCID=5004c306
DTITLE=JAKE MATTHEWS - RED TAIL LIGHTS
DYEAR=2013
DGENRE=COUNTRY
TTITLE0=IF I HAD IT MY WAY
TTITLE1=FOREVER'S ON OUR SIDE
TTITLE2=MIGHT TAKE ALL NIGHT
TTITLE3=RED TAIL LIGHTS
TTITLE4=RAIN'S GONNA FALL
TTITLE5=RED TAIL LIGHTS
EXTD=
EXTT0=
EXTT1=
EXTT2=
EXTT3=
EXTT4=
EXTT5=
PLAYORDER=
